HIERARCHY
ROOT hip
{
	OFFSET 0.000000 0.000000 0.000000
	CHANNELS 6 Xposition Yposition Zposition Xrotation Zrotation Yrotation 
	JOINT abdomen
	{
		OFFSET 0.000000 3.422050 0.000000
		CHANNELS 3 Xrotation Zrotation Yrotation 
		JOINT chest
		{
			OFFSET 0.000000 8.486693 -0.684411
			CHANNELS 3 Xrotation Zrotation Yrotation 
			JOINT neck
			{
				OFFSET 0.000000 10.266162 -0.273764
				CHANNELS 3 Xrotation Zrotation Yrotation 
				JOINT head
				{
					OFFSET 0.000000 3.148285 0.000000
					CHANNELS 3 Xrotation Zrotation Yrotation 
					End Site
					{
						OFFSET 0.000000 3.148289 0.000000
					}
				}
			}
			JOINT lCollar
			{
				OFFSET 3.422053 6.707223 -0.821293
				CHANNELS 3 Yrotation Zrotation Xrotation 
				JOINT lShldr
				{
					OFFSET 3.285171 0.000000 0.000000
					CHANNELS 3 Zrotation Yrotation Xrotation 
					JOINT lForeArm
					{
						OFFSET 10.129278 0.000000 0.000000
						CHANNELS 3 Yrotation Zrotation Xrotation 
						JOINT lHand
						{
							OFFSET 8.486692 0.000000 0.000000
							CHANNELS 3 Zrotation Yrotation Xrotation 
							End Site
							{
								OFFSET 4.106464 0.000000 0.000000
							}
						}
					}
				}
			}
			JOINT rCollar
			{
				OFFSET -3.558935 6.707223 -0.821293
				CHANNELS 3 Yrotation Zrotation Xrotation 
				JOINT rShldr
				{
					OFFSET -3.148289 0.000000 0.000000
					CHANNELS 3 Zrotation Yrotation Xrotation 
					JOINT rForeArm
					{
						OFFSET -10.266159 0.000000 0.000000
						CHANNELS 3 Yrotation Zrotation Xrotation 
						JOINT rHand
						{
							OFFSET -8.349810 0.000000 0.000000
							CHANNELS 3 Zrotation Yrotation Xrotation 
							End Site
							{
								OFFSET -4.106464 0.000000 0.000000
							}
						}
					}
				}
			}
		}
	}
	JOINT lThigh
	{
		OFFSET 5.338403 -1.642589 1.368821
		CHANNELS 3 Xrotation Zrotation Yrotation 
		JOINT lShin
		{
			OFFSET -2.053232 -20.121670 0.000000
			CHANNELS 3 Xrotation Zrotation Yrotation 
			JOINT lFoot
			{
				OFFSET 0.000000 -19.300380 -1.231939
				CHANNELS 3 Xrotation Yrotation Zrotation 
				End Site
				{
					OFFSET 0.000000 -2.463878 4.653993
				}
			}
		}
	}
	JOINT rThigh
	{
		OFFSET -5.338403 -1.642589 1.368821
		CHANNELS 3 Xrotation Zrotation Yrotation 
		JOINT rShin
		{
			OFFSET 2.053232 -20.121670 0.000000
			CHANNELS 3 Xrotation Zrotation Yrotation 
			JOINT rFoot
			{
				OFFSET 0.000000 -19.300380 -1.231939
				CHANNELS 3 Xrotation Yrotation Zrotation 
				End Site
				{
					OFFSET 0.000000 -2.463878 4.653993
				}
			}
		}
	}
}
MOTION
Frames: 13
Frame Time: 0.033264
0.000000 43.528500 0.000000 0.000000 0.000000 0.000000 0.000000 0.000000 0.000000 0.000000 0.000000 0.000000 0.000000 0.000000 0.000000 0.000000 0.000000 0.000000 0.000000 0.000000 0.000000 0.000000 0.000000 0.000000 0.000000 0.000000 0.000000 0.000000 0.000000 0.000000 0.000000 0.000000 0.000000 0.000000 0.000000 0.000000 0.000000 0.000000 0.000000 0.000000 0.000000 0.000000 0.000000 0.000000 0.000000 0.000000 0.000000 0.000000 0.000000 0.000000 0.000000 0.000000 0.000000 0.000000 0.000000 0.000000 0.000000 0.000000 0.000000 0.000000 
0.000000 43.723740 0.000000 0.000000 0.000000 0.000000 0.496800 -0.785199 -0.792035 2.198770 -0.981533 0.748957 10.000217 -5.002309 -11.003044 -15.002168 -9.002470 -0.002798 -41.342548 2.762058 -0.776657 8.174292 -31.006292 -34.526878 -48.232754 13.187568 6.646766 7.000309 -35.202957 -61.203175 41.338844 -2.765297 -0.775519 -8.176588 31.001791 -34.526859 48.229431 -13.190990 6.647839 -7.001225 35.197987 -61.202267 -5.299001 6.408607 0.009932 10.190452 -1.863503 -0.266246 1.900822 -3.040184 0.503552 -5.298817 -6.412268 -0.013283 10.190377 1.860334 0.262449 1.900887 3.036625 -0.506986 
0.000000 43.723740 0.000000 0.000000 0.000000 0.000000 0.496800 -0.785199 -0.792035 2.198770 -0.981533 0.748957 10.000192 -5.175889 -11.003018 -15.002153 -9.002454 -0.276918 -41.342548 2.762058 -0.776657 8.174292 -31.006292 -34.526878 -48.232754 13.187568 6.646766 7.000309 -35.202957 -61.203175 41.338844 -2.765297 -0.775519 -8.176588 31.001791 -34.526859 48.229431 -13.190990 6.647839 -7.001224 35.197990 -61.202267 -5.299001 6.408607 0.009932 10.190452 -1.863503 -0.266246 1.900822 -3.040184 0.503552 -5.298817 -6.412268 -0.013283 10.190377 1.860334 0.262449 1.900887 3.036625 -0.506986 
0.000000 43.723740 0.000000 0.000000 0.000000 0.000000 0.496800 -0.785199 -0.792035 2.198771 -0.981533 0.748957 10.000166 -5.349498 -11.002994 -15.002142 -9.002439 -0.551144 -41.342552 2.762058 -0.776657 8.174292 -31.006292 -34.526878 -48.232758 13.187568 6.646766 7.000307 -35.202961 -61.203175 41.338844 -2.765297 -0.775519 -8.176588 31.001791 -34.526859 48.229431 -13.190990 6.647839 -7.001225 35.197987 -61.202267 -5.299001 6.408607 0.009932 10.190452 -1.863504 -0.266246 1.900822 -3.040184 0.503552 -5.298817 -6.412268 -0.013283 10.190377 1.860334 0.262449 1.900887 3.036625 -0.506986 
0.000000 43.723740 0.000000 0.000000 0.000000 0.000000 0.496801 -0.785199 -0.792035 2.198770 -0.981533 0.748957 10.000141 -5.523131 -11.002968 -15.002125 -9.002423 -0.825472 -41.342548 2.762058 -0.776657 8.174294 -31.006300 -34.526878 -48.232758 13.187569 6.646766 7.000309 -35.202957 -61.203175 41.338844 -2.765297 -0.775519 -8.176588 31.001791 -34.526859 48.229435 -13.190990 6.647839 -7.001224 35.197990 -61.202267 -5.299001 6.408607 0.009932 10.190452 -1.863503 -0.266246 1.900822 -3.040184 0.503552 -5.298817 -6.412268 -0.013283 10.190377 1.860334 0.262449 1.900887 3.036626 -0.506986 
0.000000 43.723740 0.000000 0.000000 0.000000 0.000000 0.496801 -0.785199 -0.792035 2.198771 -0.981533 0.748957 10.000116 -5.696791 -11.002944 -15.002112 -9.002409 -1.099901 -41.342548 2.762058 -0.776657 8.174294 -31.006300 -34.526878 -48.232754 13.187570 6.646767 7.000309 -35.202957 -61.203175 41.338848 -2.765297 -0.775519 -8.176588 31.001791 -34.526859 48.229431 -13.190990 6.647839 -7.001225 35.197987 -61.202267 -5.299001 6.408607 0.009932 10.190452 -1.863503 -0.266246 1.900822 -3.040185 0.503552 -5.298817 -6.412268 -0.013283 10.190377 1.860334 0.262449 1.900887 3.036625 -0.506986 
0.000000 43.723740 0.000000 0.000000 0.000000 0.000000 0.496801 -0.785199 -0.792035 2.198770 -0.981533 0.748957 10.000092 -5.870475 -11.002918 -15.002099 -9.002393 -1.374426 -41.342548 2.762058 -0.776657 8.174294 -31.006292 -34.526882 -48.232754 13.187568 6.646766 7.000310 -35.202961 -61.203175 41.338844 -2.765297 -0.775519 -8.176590 31.001795 -34.526867 48.229435 -13.190993 6.647840 -7.001224 35.197990 -61.202267 -5.299001 6.408607 0.009932 10.190453 -1.863503 -0.266246 1.900822 -3.040184 0.503552 -5.298818 -6.412268 -0.013283 10.190377 1.860334 0.262449 1.900887 3.036625 -0.506986 
0.000000 43.723740 0.000000 0.000000 0.000000 0.000000 0.496800 -0.785199 -0.792035 2.198770 -0.981533 0.748957 10.000065 -6.044182 -11.002892 -15.002088 -9.002377 -1.649044 -41.342548 2.762057 -0.776657 8.174291 -31.006292 -34.526875 -48.232750 13.187567 6.646765 7.000309 -35.202957 -61.203175 41.338844 -2.765297 -0.775519 -8.176585 31.001789 -34.526852 48.229427 -13.190989 6.647838 -7.001227 35.197983 -61.202267 -5.299001 6.408606 0.009932 10.190451 -1.863503 -0.266246 1.900822 -3.040184 0.503552 -5.298817 -6.412267 -0.013283 10.190376 1.860334 0.262449 1.900887 3.036625 -0.506986 
0.000000 43.723740 0.000000 0.000000 0.000000 0.000000 0.496800 -0.785199 -0.792035 2.198770 -0.981533 0.748957 10.000037 -6.217909 -11.002866 -15.002070 -9.002362 -1.923753 -41.342548 2.762058 -0.776657 8.174293 -31.006292 -34.526878 -48.232754 13.187568 6.646766 7.000309 -35.202953 -61.203167 41.338844 -2.765297 -0.775519 -8.176588 31.001789 -34.526855 48.229431 -13.190990 6.647839 -7.001225 35.197987 -61.202267 -5.299000 6.408606 0.009932 10.190452 -1.863503 -0.266246 1.900822 -3.040184 0.503552 -5.298817 -6.412267 -0.013283 10.190376 1.860334 0.262449 1.900887 3.036625 -0.506986 
0.000000 43.723740 0.000000 0.000000 0.000000 0.000000 0.496800 -0.785199 -0.792035 2.198770 -0.981533 0.748957 10.000010 -6.391661 -11.002841 -15.002058 -9.002346 -2.198549 -41.342548 2.762058 -0.776657 8.174293 -31.006292 -34.526878 -48.232754 13.187568 6.646766 7.000309 -35.202957 -61.203175 41.338844 -2.765297 -0.775519 -8.176588 31.001789 -34.526855 48.229431 -13.190990 6.647839 -7.001224 35.197983 -61.202267 -5.299001 6.408607 0.009932 10.190452 -1.863503 -0.266246 1.900822 -3.040184 0.503552 -5.298817 -6.412268 -0.013283 10.190376 1.860334 0.262449 1.900887 3.036625 -0.506986 
0.000000 43.723740 0.000000 0.000000 0.000000 0.000000 0.496800 -0.785199 -0.792035 2.198770 -0.981533 0.748957 9.999986 -6.565435 -11.002816 -15.002047 -9.002331 -2.473428 -41.342548 2.762058 -0.776657 8.174291 -31.006290 -34.526878 -48.232750 13.187568 6.646765 7.000309 -35.202957 -61.203175 41.338844 -2.765297 -0.775519 -8.176588 31.001791 -34.526859 48.229427 -13.190989 6.647839 -7.001225 35.197987 -61.202267 -5.299001 6.408606 0.009932 10.190452 -1.863503 -0.266246 1.900822 -3.040184 0.503552 -5.298817 -6.412268 -0.013283 10.190376 1.860334 0.262449 1.900887 3.036625 -0.506986 
0.000000 43.723740 0.000000 0.000000 0.000000 0.000000 0.496800 -0.785199 -0.792035 2.198770 -0.981533 0.748957 9.999960 -6.739227 -11.002789 -15.002029 -9.002314 -2.748389 -41.342548 2.762058 -0.776657 8.174292 -31.006292 -34.526878 -48.232754 13.187568 6.646766 7.000309 -35.202957 -61.203175 41.338844 -2.765297 -0.775519 -8.176588 31.001791 -34.526859 48.229431 -13.190990 6.647839 -7.001225 35.197987 -61.202267 -5.299000 6.408607 0.009932 10.190452 -1.863503 -0.266246 1.900822 -3.040184 0.503552 -5.298817 -6.412268 -0.013283 10.190376 1.860334 0.262449 1.900887 3.036625 -0.506986 
0.000000 43.723740 0.000000 0.000000 0.000000 0.000000 0.496800 -0.785199 -0.792035 2.198770 -0.981533 0.748957 9.999934 -6.913042 -11.002764 -15.002021 -9.002298 -3.023429 -41.342548 2.762058 -0.776657 8.174292 -31.006292 -34.526878 -48.232754 13.187568 6.646766 7.000309 -35.202957 -61.203175 41.338844 -2.765297 -0.775519 -8.176588 31.001791 -34.526859 48.229431 -13.190990 6.647839 -7.001225 35.197987 -61.202267 -5.299001 6.408607 0.009932 10.190452 -1.863503 -0.266246 1.900822 -3.040184 0.503552 -5.298817 -6.412268 -0.013283 10.190377 1.860334 0.262449 1.900887 3.036625 -0.506986 
